<?xml version="1.0" standalone="no"?>
<!DOCTYPE svg PUBLIC "-//W3C//DTD SVG 1.1//EN" "http://www.w3.org/Graphics/SVG/1.1/DTD/svg11.dtd" >
<svg xmlns="http://www.w3.org/2000/svg">
<metadata>
Created by FontPrep 20130207 at Sat Apr 22 17:13:41 2017
 By Brent Freaney
Copyright (c) 1991 Adobe Systems Incorporated.  All Rights Reserved.Trade Gothic is a trademark of Linotype-Hell AG and/or its subsidiaries.
</metadata>
<defs>
<font id="1aaf2ddadbcd7f35c674457a7a032015" horiz-adv-x='1024' >
  <font-face 
    font-family="TradeGothicLT-Extended"
    font-weight="400"
    font-stretch="normal"
    units-per-em="2048"
    panose-1="2 0 5 4 4 0 0 2 0 4"
    ascent="1638"
    descent="-410"
    x-height="1071"
    cap-height="1489"
    bbox="-348 -512 2087 2083"
    underline-thickness="102"
    underline-position="-153"
    unicode-range="U+0020-2122"
  />
<missing-glyph horiz-adv-x="1024" 
d="M102 1049h820v-1049h-820v1049zM905 16v1016h-786v-1016h786z" />
    <glyph glyph-name=".notdef" horiz-adv-x="1024" 
d="M102 1049h820v-1049h-820v1049zM905 16v1016h-786v-1016h786z" />
    <glyph glyph-name=".null" horiz-adv-x="0" 
 />
    <glyph glyph-name="nonmarkingreturn" horiz-adv-x="739" 
 />
    <glyph glyph-name="space" unicode=" " horiz-adv-x="739" 
 />
    <glyph glyph-name="exclam" unicode="!" horiz-adv-x="681" 
d="M236 238h210v-238h-210v238zM225 1489h232l-43 -1047h-140z" />
    <glyph glyph-name="quotedbl" unicode="&#x22;" horiz-adv-x="1024" 
d="M291 1489h135v-524h-135v524zM598 1489h135v-524h-135v524z" />
    <glyph glyph-name="numbersign" unicode="#" horiz-adv-x="1478" 
d="M584 586h270l41 317h-270zM223 586h238l41 317h-219v123h237l62 463h123l-62 -463h270l62 463h123l-62 -463h219v-123h-237l-41 -317h219v-123h-238l-61 -463h-123l62 463h-271l-61 -463h-123l61 463h-219v123z" />
    <glyph glyph-name="dollar" unicode="$" horiz-adv-x="1478" 
d="M1395 412q0 -377 -594 -412v-295h-137v295q-170 19 -310.5 70.5t-283.5 210.5l125 112q179 -215 473 -241v528q-287 51 -418 143t-131 246q0 207 163 302t390 95v211h129v-211q298 -10 413 -110.5t150 -132.5l-117 -117q-159 166 -275 184.5t-171 24.5v-500
q253 -38 361 -87.5t170.5 -122.5t62.5 -193zM668 1315q-257 0 -323 -82t-66 -137q0 -101 88.5 -158.5t300.5 -93.5v471zM1235 395q0 123 -95.5 171t-338.5 89v-503q180 10 266 48t127 84t41 111z" />
    <glyph glyph-name="percent" unicode="%" horiz-adv-x="2048" 
d="M1288 332q0 -47 18.5 -88t49 -72t71.5 -49.5t88.5 -18.5t88.5 18.5t71.5 49.5t49 72t18.5 88t-18.5 88t-49 71.5t-71.5 49t-88.5 18.5t-88.5 -18.5t-71.5 -49t-49 -71.5t-18.5 -88zM1403 1526h123l-869 -1563h-122zM305 1157q0 -47 18.5 -88t49 -71.5t71.5 -49
t88.5 -18.5t88.5 18.5t71.5 49t49 71.5t18.5 88t-18.5 88t-49 72t-71.5 49t-88.5 18t-88.5 -18t-71.5 -49t-49 -72t-18.5 -88zM1147 332q0 76 28.5 143.5t79 117.5t118 78.5t143 28.5t143 -28.5t118 -78.5t79 -117.5t28.5 -143.5t-28.5 -143.5t-79 -118t-118 -79t-143 -28.5
t-143 28.5t-118 79t-79 118t-28.5 143.5zM164 1157q0 76 28.5 143.5t79 117.5t118 79t143 29t143 -29t118 -79t79 -117.5t28.5 -143.5t-28.5 -143.5t-79 -117.5t-118 -79t-143 -29t-143 29t-118 79t-79 117.5t-28.5 143.5z" />
    <glyph glyph-name="ampersand" unicode="&#x26;" horiz-adv-x="1933" 
d="M432 1212q0 127 92.5 220.5t271.5 93.5t288.5 -84t109.5 -250t-102 -255.5t-238 -127.5q175 -194 475 -442q167 140 226 258t90 184l145 -72q-59 -143 -146.5 -255.5t-181.5 -205.5q159 -101 251.5 -122t158.5 -25v-166q-162 4 -293 53.5t-258 145.5q-160 -95 -306 -147
t-398 -52t-398.5 117t-146.5 321q0 360 485 494q-125 149 -125 317zM244 403q0 -89 45 -147.5t130.5 -99.5t244.5 -41q266 0 516 149q-268 214 -516 496q-186 -56 -262 -104t-117 -106t-41 -147zM598 1208q0 -78 38 -141t101 -129q133 38 212 94.5t79 177.5q0 92 -68 133
t-155 41q-86 0 -146.5 -49t-60.5 -127z" />
    <glyph glyph-name="quotesingle" unicode="'" horiz-adv-x="569" 
d="M217 1489h135v-524h-135v524z" />
    <glyph glyph-name="parenleft" unicode="(" horiz-adv-x="681" 
d="M283 682q0 -145 23.5 -255t69.5 -205t113.5 -186t157.5 -198h-186q-276 301 -310 515t-34 328q0 239 77 439.5t267 405.5h186q-90 -109 -157.5 -199t-113.5 -185t-69.5 -205t-23.5 -255z" />
    <glyph glyph-name="parenright" unicode=")" horiz-adv-x="681" 
d="M399 682q0 268 -69.5 411.5t-137 233.5t-157.5 199h186q277 -302 310.5 -516.5t33.5 -328.5q0 -237 -77 -437.5t-267 -405.5h-186q198 233 281 404.5t83 439.5z" />
    <glyph glyph-name="asterisk" unicode="*" horiz-adv-x="1024" 
d="M197 1317l256 -117l12 10l-33 279h160l-33 -279l12 -10l256 117l41 -158l-282 -47l-6 -14l196 -213l-125 -92l-133 258h-12l-133 -258l-125 92l196 213l-6 14l-282 47z" />
    <glyph glyph-name="plus" unicode="+" horiz-adv-x="1228" 
d="M553 457h-457v123h457v456h123v-456h457v-123h-457v-457h-123v457z" />
    <glyph glyph-name="comma" unicode="," horiz-adv-x="739" 
d="M264 0v238h211v-238l-129 -324h-100l112 324h-94z" />
    <glyph glyph-name="hyphenminus" unicode="-" horiz-adv-x="681" 
d="M618 623v-152h-555v152h555z" />
    <glyph glyph-name="period" unicode="." horiz-adv-x="739" 
d="M264 238h211v-238h-211v238z" />
    <glyph glyph-name="slash" unicode="/" horiz-adv-x="569" 
d="M432 1526h143l-454 -1563h-144z" />
    <glyph glyph-name="zero" unicode="0" horiz-adv-x="1478" 
d="M1247 732q0 282 -129.5 462t-377.5 180q-249 0 -379 -181t-130 -462q0 -282 147 -449t361.5 -167t361 167.5t146.5 449.5zM66 739q0 437 217.5 612t456 175t456 -175t217.5 -612q0 -383 -195.5 -579.5t-479.5 -196.5q-281 0 -476.5 195.5t-195.5 580.5z" />
    <glyph glyph-name="one" unicode="1" horiz-adv-x="1478" 
d="M385 152h299v1169l-324 -23v123q110 15 226 53.5t147 51.5h117v-1374h297v-152h-762v152z" />
    <glyph glyph-name="two" unicode="2" horiz-adv-x="1478" 
d="M1372 0h-1284v137q57 111 173.5 231.5t356.5 239.5q129 66 237 111t184.5 93t118.5 109t42 141q0 148 -114.5 230t-330.5 82q-363 0 -503 -315l-148 69q46 146 208.5 272t454.5 126t448.5 -116.5t156.5 -319.5q0 -289 -195.5 -384.5t-291.5 -137.5q-242 -106 -370.5 -186
t-242.5 -230h1100v-152z" />
    <glyph glyph-name="three" unicode="3" horiz-adv-x="1478" 
d="M639 864q506 0 506 250q0 128 -126.5 194t-301.5 66q-176 0 -301 -58.5t-195 -144.5l-127 113q117 117 252.5 179.5t380.5 62.5q375 0 479.5 -140.5t104.5 -238.5q0 -163 -74 -235.5t-174 -114.5q134 -47 215.5 -125t81.5 -224q0 -147 -104 -316t-551 -169
q-361 0 -493 119t-175 162l127 110q113 -121 247 -180t312 -59q297 0 384 109.5t87 203.5q0 147 -119 216t-375 69h-274v151h213z" />
    <glyph glyph-name="four" unicode="4" horiz-adv-x="1478" 
d="M1010 483v877l-787 -877h787zM1176 -37h-166v369h-977v147l905 1010h238v-1006h241v-151h-241v-369z" />
    <glyph glyph-name="five" unicode="5" horiz-adv-x="1478" 
d="M307 864q185 140 457 140q273 0 453 -138.5t180 -369.5t-163.5 -382t-483.5 -151q-379 0 -502 113.5t-168 163.5l129 112q35 -43 127.5 -140t410.5 -97q232 0 355 104.5t123 273.5t-143 264t-307 95q-352 0 -492 -207l-136 39l58 805h1073v-152h-934z" />
    <glyph glyph-name="six" unicode="6" horiz-adv-x="1478" 
d="M767 1374q-87 0 -187.5 -44t-180.5 -127t-128 -204.5t-44 -275.5q134 111 266 170t298 59q304 0 465 -138t161 -343q0 -257 -185 -382.5t-462 -125.5q-318 0 -513.5 203t-195.5 570t214 578.5t522 211.5q269 0 376 -70t158 -110l-104 -127q-100 84 -177 111.5
t-136.5 35.5t-146.5 8zM1245 454q0 156 -126.5 251.5t-321.5 95.5q-321 0 -547 -258q26 -205 180.5 -316.5t347.5 -111.5q319 0 393 129t74 210z" />
    <glyph glyph-name="seven" unicode="7" horiz-adv-x="1478" 
d="M115 1489h1255v-100l-866 -1426h-197l850 1374h-1042v152z" />
    <glyph glyph-name="eight" unicode="8" horiz-adv-x="1478" 
d="M1409 378q0 -108 -60.5 -193t-156.5 -134t-216 -68.5t-320 -19.5t-393 106t-193 345q0 154 104.5 241.5t218.5 120.5v4q-225 88 -245.5 200t-20.5 171q0 143 150.5 259t434.5 116t461 -96.5t177 -301.5q0 -139 -69 -204.5t-117 -89t-89 -41.5q168 -70 225.5 -128.5
t83 -118.5t25.5 -168zM236 392q0 -76 54 -132.5t161 -100.5t286 -44q325 0 415.5 97.5t90.5 171.5t-30.5 121.5t-123.5 114t-352 87.5q-372 -26 -436.5 -132.5t-64.5 -182.5zM1184 1120q0 74 -79.5 164t-375.5 90t-366 -90t-70 -164t39.5 -112t71.5 -60q47 -32 160.5 -61
t172.5 -29q280 29 363.5 108.5t83.5 153.5z" />
    <glyph glyph-name="nine" unicode="9" horiz-adv-x="1478" 
d="M710 115q86 0 187.5 44t181.5 127t128 204.5t44 275.5q-135 -112 -266 -170.5t-297 -58.5q-304 0 -465.5 137t-161.5 344q0 256 186 382t462 126q315 0 511.5 -202t196.5 -570t-162.5 -529.5t-295.5 -211.5t-255 -50q-209 0 -323 43t-234 137l105 127q101 -85 177.5 -112
t135.5 -35t145 -8zM233 1035q0 -81 35 -144.5t94.5 -108.5t141.5 -69.5t217 -24.5t273 73.5t235 184.5q-26 203 -180.5 315.5t-348.5 112.5q-319 0 -393 -129t-74 -210z" />
    <glyph glyph-name="colon" unicode=":" horiz-adv-x="739" 
d="M264 238h211v-238h-211v238zM264 854h211v-238h-211v238z" />
    <glyph glyph-name="semicolon" unicode=";" horiz-adv-x="739" 
d="M264 0v238h211v-238l-129 -324h-100l112 324h-94zM264 854h211v-238h-211v238z" />
    <glyph glyph-name="less" unicode="&#x3c;" horiz-adv-x="1228" 
d="M96 575l1037 478v-135l-871 -400l871 -399v-135l-1037 477v114z" />
    <glyph glyph-name="equal" unicode="=" horiz-adv-x="1228" 
d="M96 778h1037v-123h-1037v123zM96 381h1037v-123h-1037v123z" />
    <glyph glyph-name="greater" unicode="&#x3e;" horiz-adv-x="1228" 
d="M1133 461l-1037 -477v135l871 399l-871 400v135l1037 -478v-114z" />
    <glyph glyph-name="question" unicode="?" horiz-adv-x="1251" 
d="M649 1374q-309 0 -448 -241l-146 84q107 157 237 233t348 76t377 -93t159 -278q0 -157 -54.5 -221t-103.5 -96.5t-109 -69.5q-162 -83 -198.5 -126.5t-48 -85.5t-13.5 -107h-151q-4 174 62.5 258t211.5 168q145 85 188.5 131.5t43.5 143.5t-95.5 160.5t-259.5 63.5z
M469 238h211v-238h-211v238z" />
    <glyph glyph-name="at" unicode="@" horiz-adv-x="1638" 
d="M868 1083q-82 0 -151.5 -50t-118.5 -123.5t-74.5 -158.5t-25.5 -153q0 -199 168 -199q78 0 146.5 50.5t148 170.5t79.5 292q0 171 -172 171zM887 1206q177 0 237 -176h6l52 139h129l-217 -600q-10 -35 -19.5 -65.5t-9.5 -59.5q0 -55 63 -55q39 0 99.5 35t156 147.5
t95.5 331.5q0 117 -52.5 212t-186.5 197.5t-380 102.5q-147 0 -275 -53t-276.5 -198.5t-148.5 -420.5q0 -141 56 -264t151.5 -213t222 -141t242.5 -51q201 0 359 77t236 197h140q-104 -176 -296.5 -280.5t-389.5 -104.5t-347.5 62.5t-261 168t-173 248t-62.5 302.5t64.5 304
t176 249.5t262 167t312.5 61.5t297 -48t235.5 -135.5t159 -207t58.5 -251.5t-47.5 -239.5t-120 -189.5t-162.5 -130.5t-162 -48.5t-116 35t-42 111h-4q-146 -146 -289 -146t-220 89.5t-77 210.5t39 231.5t108 199.5t165 144t213 55z" />
    <glyph glyph-name="A" unicode="A" horiz-adv-x="1820" 
d="M1311 547l-400 801l-399 -801h799zM801 1489h221l764 -1489h-203l-192 387h-961l-194 -387h-201z" />
    <glyph glyph-name="B" unicode="B" horiz-adv-x="1820" 
d="M195 1489h862q332 0 454.5 -105t122.5 -289t-96 -238t-131 -71q113 -48 196 -127t83 -252t-130 -283t-326 -117t-274 -7h-761v1489zM375 160h698q199 0 313.5 56t114.5 208q0 219 -157.5 248.5t-249.5 29.5h-719v-542zM375 854h633q199 0 282.5 35t123.5 83t40 131
t-42 132t-112.5 71.5t-161.5 26.5t-192 4h-571v-483z" />
    <glyph glyph-name="C" unicode="C" horiz-adv-x="1820" 
d="M961 123q435 0 622 350l160 -78q-121 -231 -323.5 -331.5t-447.5 -100.5t-404.5 60.5t-316.5 217.5t-157 517t231.5 564t627.5 204t557 -157t210 -269l-155 -72q-78 182 -243 264t-378 82q-322 0 -493.5 -168t-171.5 -487q0 -266 177.5 -431t504.5 -165z" />
    <glyph glyph-name="D" unicode="D" horiz-adv-x="1820" 
d="M195 1489h735q358 0 577 -188t219 -543q0 -412 -249 -585t-605 -173h-677v1489zM375 160h526q474 0 557.5 228t83.5 384q0 292 -174 424.5t-438 132.5h-555v-1169z" />
    <glyph glyph-name="E" unicode="E" horiz-adv-x="1593" 
d="M195 1489h1327v-160h-1147v-475h958v-160h-958v-534h1171v-160h-1351v1489z" />
    <glyph glyph-name="F" unicode="F" horiz-adv-x="1593" 
d="M195 1489h1359v-160h-1179v-471h995v-160h-995v-698h-180v1489z" />
    <glyph glyph-name="G" unicode="G" horiz-adv-x="1820" 
d="M1702 723v-735h-160v217q-95 -110 -233.5 -176t-360.5 -66q-419 0 -636.5 217.5t-217.5 577.5t231.5 564t616.5 204q268 0 460.5 -110.5t276.5 -299.5l-151 -80q-78 181 -245 259.5t-347 78.5q-315 0 -486 -168t-171 -487q0 -265 176 -430.5t497 -165.5q225 0 396.5 112
t189.5 328h-604v160h768z" />
    <glyph glyph-name="H" unicode="H" horiz-adv-x="1933" 
d="M201 1489h180v-631h1171v631h181v-1489h-181v698h-1171v-698h-180v1489z" />
    <glyph glyph-name="I" unicode="I" horiz-adv-x="569" 
d="M195 1489h180v-1489h-180v1489z" />
    <glyph glyph-name="J" unicode="J" horiz-adv-x="1251" 
d="M1057 1489v-965q0 -302 -167 -431.5t-383 -129.5q-368 0 -493 324l160 80q38 -98 111 -171t235 -73t258 103.5t99 289.5v973h180z" />
    <glyph glyph-name="K" unicode="K" horiz-adv-x="1820" 
d="M195 1489h180v-793l1016 793h276l-727 -561l836 -928h-244l-733 819l-424 -332v-487h-180v1489z" />
    <glyph glyph-name="L" unicode="L" horiz-adv-x="1593" 
d="M195 1489h180v-1329h1175v-160h-1355v1489z" />
    <glyph glyph-name="M" unicode="M" horiz-adv-x="2048" 
d="M195 1489h278l551 -1253l551 1253h278v-1489h-165v1329h-5l-581 -1329h-152l-585 1329h-5v-1329h-165v1489z" />
    <glyph glyph-name="N" unicode="N" horiz-adv-x="1933" 
d="M195 1489h256l1108 -1225v1225h180v-1489h-180l-1192 1329v-1329h-172v1489z" />
    <glyph glyph-name="O" unicode="O" horiz-adv-x="1933" 
d="M94 728q0 192 65.5 339t181.5 248.5t275.5 156t448 54.5t531.5 -213.5t243 -577.5q0 -199 -75.5 -344t-198.5 -240.5t-280 -141.5t-318.5 -46t-318 46t-279.5 141.5t-199 240.5t-76 337zM279 746q0 -148 56 -270t195 -237.5t436 -115.5t493 162t196 483q0 256 -186.5 431
t-502 175t-501.5 -175t-186 -453z" />
    <glyph glyph-name="P" unicode="P" horiz-adv-x="1703" 
d="M1067 1489q575 0 575 -426q0 -238 -157 -333t-418 -95h-692v-635h-180v1489h872zM375 795h645q223 0 336.5 57t113.5 210t-112.5 210t-337.5 57h-645v-534z" />
    <glyph glyph-name="Q" unicode="Q" horiz-adv-x="1933" 
d="M1831 -193q-180 0 -286 45t-214 175q-167 -64 -346 -64q-180 0 -336.5 46t-279.5 141.5t-199 241t-76 337.5t65.5 338.5t181.5 248t275.5 156t448 54.5t531.5 -213.5t243 -577.5q0 -229 -98.5 -387t-255.5 -252q93 -119 346 -119v-170zM1655 768q0 256 -186.5 431
t-502 175t-501.5 -175.5t-186 -430.5q0 -321 195 -483t493 -162q149 0 268 39q-52 81 -100.5 122.5t-143.5 65.5v172q207 -36 278.5 -128.5t110.5 -164.5q125 72 200 205t75 334z" />
    <glyph glyph-name="R" unicode="R" horiz-adv-x="1820" 
d="M375 819h639q222 0 338 52.5t116 235.5t-178 202.5t-276 19.5h-639v-510zM1055 1489q585 0 585 -416q0 -209 -149 -306.5t-320 -102.5l492 -664h-223l-479 659h-586v-659h-180v1489h860z" />
    <glyph glyph-name="S" unicode="S" horiz-adv-x="1703" 
d="M844 123q247 0 415 69.5t168 223.5t-147 196.5t-264 55t-238 25t-385 55.5t-264 331q0 229 190 338t483 109t482 -90t281 -215l-131 -107q-23 27 -65 71t-163.5 116.5t-382.5 72.5q-364 0 -437 -98t-73 -175t55.5 -124t147.5 -72.5t209 -36t329.5 -31.5t385 -106.5
t172.5 -310.5q0 -198 -192 -327.5t-532 -129.5q-475 0 -623 145.5t-195 198.5l139 119q33 -43 79 -96.5t122.5 -99.5t191.5 -76.5t242 -30.5z" />
    <glyph glyph-name="T" unicode="T" horiz-adv-x="1703" 
d="M762 1329h-719v160h1618v-160h-719v-1329h-180v1329z" />
    <glyph glyph-name="U" unicode="U" horiz-adv-x="1933" 
d="M1733 612q0 -362 -222 -505.5t-544.5 -143.5t-544 143t-221.5 506v877h180v-877q0 -256 155.5 -376.5t430 -120.5t430 120.5t155.5 376.5v877h181v-877z" />
    <glyph glyph-name="V" unicode="V" horiz-adv-x="1703" 
d="M195 1489l657 -1292l659 1292h199l-770 -1489h-176l-770 1489h201z" />
    <glyph glyph-name="W" unicode="W" horiz-adv-x="2048" 
d="M23 1489h190l352 -1208h4l367 1208h172l369 -1202h4l356 1202h188l-462 -1489h-172l-363 1214h-4l-365 -1214h-172z" />
    <glyph glyph-name="X" unicode="X" horiz-adv-x="1703" 
d="M737 772l-663 717h239l543 -592l549 592h240l-668 -715l715 -774h-238l-594 647l-604 -647h-244z" />
    <glyph glyph-name="Y" unicode="Y" horiz-adv-x="1818" 
d="M999 0h-180v602l-768 887h236l622 -727l623 727h235l-768 -887v-602z" />
    <glyph glyph-name="Z" unicode="Z" horiz-adv-x="1593" 
d="M98 1329v160h1434v-113l-1196 -1216h1220v-160h-1519v106l1204 1223h-1143z" />
    <glyph glyph-name="bracketleft" unicode="[" horiz-adv-x="681" 
d="M160 1489h493v-90h-327v-1434h327v-90h-493v1614z" />
    <glyph glyph-name="backslash" unicode="\" horiz-adv-x="569" 
d="M-6 1526h143l455 -1563h-143z" />
    <glyph glyph-name="bracketright" unicode="]" horiz-adv-x="681" 
d="M522 -125h-493v90h327v1434h-327v90h493v-1614z" />
    <glyph glyph-name="asciicircum" unicode="^" horiz-adv-x="1228" 
d="M614 1329l-389 -768h-135l473 928h103l473 -928h-135z" />
    <glyph glyph-name="underscore" unicode="_" horiz-adv-x="1024" 
d="M0 -154h1024v-102h-1024v102z" />
    <glyph glyph-name="grave" unicode="`" horiz-adv-x="454" 
d="M375 1225h-150l-303 291h234z" />
    <glyph glyph-name="a" unicode="a" 
d="M66 286q0 98 43 164t116.5 110t170 70.5t205 44t221 29t216.5 23.5v41q0 149 -140 175t-225 26q-165 0 -257 -51.5t-160 -129.5l-125 86q23 29 59.5 68t143.5 100.5t348 61.5q352 0 437 -122t85 -224v-592q0 -75 19 -166h-166q-21 88 -21 129q-249 -162 -535 -162
q-285 0 -360 110.5t-75 208.5zM223 300q0 -118 88.5 -158t178.5 -40q148 0 279.5 47t268.5 121v322q-182 -18 -332.5 -37.5t-316.5 -70.5t-166 -184z" />
    <glyph glyph-name="b" unicode="b" horiz-adv-x="1478" 
d="M319 336q216 -227 486 -227q88 0 174 33.5t177 120t91 259.5q0 224 -133 332.5t-326 108.5q-269 0 -469 -211v-416zM154 1489h165v-565q114 88 222.5 134t268.5 46q161 0 278.5 -55.5t189.5 -140.5t103.5 -187.5t31.5 -254.5t-152.5 -325.5t-441.5 -173.5q-236 0 -342 76
t-166 125l-41 -168h-129l13 201v1288z" />
    <glyph glyph-name="c" unicode="c" 
d="M363.5 852.5q-132.5 -110.5 -132.5 -330.5q0 -174 132.5 -293.5t341.5 -119.5t295.5 86t129.5 159l144 -80q-127 -221 -293 -264t-301 -43q-272 0 -443 161.5t-171 420.5q0 258 177 406.5t437 148.5q217 0 348 -81t211 -212l-143 -82q-60 97 -152 165.5t-270 68.5
t-310.5 -110.5z" />
    <glyph glyph-name="d" unicode="d" horiz-adv-x="1478" 
d="M364 854.5q-133 -108.5 -133 -332.5q0 -172 127 -292.5t326 -120.5q200 0 318 93t157 134v416q-89 94 -200 152.5t-287 58.5q-175 0 -308 -108.5zM657 -33q-162 0 -272.5 53.5t-181 135.5t-104 180t-33.5 190t31.5 194.5t103 187.5t189.5 140.5t306 55.5t298 -69.5
t165 -110.5v565h166v-1288l12 -201h-149l-21 168q-142 -114 -245 -157.5t-265 -43.5z" />
    <glyph glyph-name="e" unicode="e" 
d="M234 129.5q-168 162.5 -168 412.5t166 406t431 156t445 -150t176 -452h-1053q13 -161 135.5 -277t348.5 -116t305.5 89t103.5 119l129 -94q-41 -43 -86 -89t-150.5 -106.5t-360.5 -60.5q-254 0 -422 162.5zM377 877q-105 -86 -139 -234h866q-25 138 -142.5 229t-298.5 91
t-286 -86z" />
    <glyph glyph-name="f" unicode="f" horiz-adv-x="1024" 
d="M317 1130q0 396 381 396q163 0 279 -29v-147q-134 34 -224 34q-166 0 -218 -66t-52 -200v-69h441v-142h-441v-907h-166v907h-270v142h270v81z" />
    <glyph glyph-name="g" unicode="g" 
d="M1098 915q59 -91 59 -174q0 -164 -122.5 -281.5t-377.5 -117.5q-153 0 -212.5 18.5t-96.5 32.5q-76 -27 -76 -88q0 -27 12.5 -43t69 -28.5t272.5 -15.5t330.5 -12t192.5 -37t117 -78.5t39 -148.5t-116.5 -208.5t-574.5 -110.5q-370 0 -471.5 101.5t-101.5 199.5
q0 59 38 109.5t144 87.5q-55 29 -86 61.5t-31 78.5q0 71 38.5 111.5t109.5 84.5q-66 59 -105.5 118.5t-39.5 156.5q0 186 145.5 279t356.5 93t288.5 -36t122.5 -64q74 61 126 84.5t150 23.5v-151q-126 0 -200 -46zM992.5 -200q152.5 42 152.5 137q0 35 -16.5 57t-71 40.5
t-220.5 24.5q-167 6 -264.5 9.5t-195.5 7.5q-86 -31 -131 -66t-45 -85t36.5 -81.5t123.5 -58.5t283 -27t348.5 42zM378.5 915q-110.5 -54 -110.5 -191t119 -192t248 -55q238 0 300 87t62 163t-35.5 124t-110.5 83t-218.5 35t-254 -54z" />
    <glyph glyph-name="h" unicode="h" 
d="M750 963q-222 0 -431 -215v-748h-165v1489h165v-574q86 74 197 131.5t264 57.5q269 0 350.5 -130t81.5 -267v-707h-165v674q4 167 -86 228t-211 61z" />
    <glyph glyph-name="i" unicode="i" horiz-adv-x="456" 
d="M147 1071h166v-1071h-166v1071zM324 1489v-191h-191v191h191z" />
    <glyph glyph-name="j" unicode="j" horiz-adv-x="569" 
d="M99 -236q69 0 97.5 41t28.5 138v1128h164v-1165q0 -135 -60.5 -209t-213.5 -74q-55 0 -123 17v143q38 -19 107 -19zM401 1489v-191h-190v191h190z" />
    <glyph glyph-name="k" unicode="k" 
d="M154 1489h165v-948l685 530h256l-504 -389l569 -682h-211l-485 588l-310 -238v-350h-165v1489z" />
    <glyph glyph-name="l" unicode="l" horiz-adv-x="456" 
d="M145 1489h166v-1489h-166v1489z" />
    <glyph glyph-name="m" unicode="m" horiz-adv-x="2045" 
d="M940 713q0 250 -231 250q-179 0 -275 -82t-123 -107v-774h-166v1071h160v-149q215 182 403 182q176 0 245.5 -52t117.5 -139q125 105 222.5 148t213.5 43q236 0 315 -106.5t79 -223.5v-774h-166v713q0 250 -236 250q-119 0 -211.5 -53t-181.5 -136v-774h-166v713z" />
    <glyph glyph-name="n" unicode="n" 
d="M750 963q-222 0 -431 -215v-748h-165v1071h165v-156q86 74 197 131.5t264 57.5q269 0 350.5 -130t81.5 -267v-707h-165v674q4 167 -86 228t-211 61z" />
    <glyph glyph-name="o" unicode="o" 
d="M235 122.5q-169 155.5 -169 432.5q0 233 169.5 391t446.5 158t447.5 -156.5t170.5 -392.5q0 -277 -169 -432.5t-448 -155.5t-448 155.5zM1135 521q0 182 -114 312t-337 130t-338 -131t-115 -311t122.5 -296t330.5 -116t329.5 115t121.5 297z" />
    <glyph glyph-name="p" unicode="p" horiz-adv-x="1478" 
d="M1113.5 216.5q133.5 107.5 133.5 332.5q0 173 -127 293.5t-336 120.5q-122 0 -248.5 -67t-216.5 -161v-416q90 -95 200.5 -152.5t285.5 -57.5t308.5 107.5zM154 1071h165v-162q125 103 232.5 149t269.5 46t272.5 -53.5t181.5 -135t104.5 -180t33.5 -190.5t-31.5 -194.5
t-150.5 -243t-432 -140.5q-210 0 -317 69.5t-163 110.5v-524h-165v1448z" />
    <glyph glyph-name="q" unicode="q" horiz-adv-x="1478" 
d="M674 963q-88 0 -174 -34t-177.5 -121t-91.5 -259q0 -225 133.5 -332.5t343.5 -107.5t312 86t139 124v416q-142 149 -269.5 188.5t-215.5 39.5zM1325 -377h-166v524q-121 -90 -226 -135t-265 -45t-278 55.5t-189.5 140.5t-103 187.5t-31.5 194.5t33.5 190.5t104 180
t181.5 135t235 53.5q200 0 303 -44t240 -157l39 168h123v-1448z" />
    <glyph glyph-name="r" unicode="r" horiz-adv-x="909" 
d="M154 1071h165v-223q107 118 205.5 187t241.5 69q57 0 98 -8v-166q-16 2 -48 8t-102 6t-145 -43t-129.5 -97t-86 -102.5t-34.5 -60.5v-641h-165v1071z" />
    <glyph glyph-name="s" unicode="s" horiz-adv-x="1251" 
d="M999 291q0 76 -65.5 110.5t-164.5 52t-215 29t-215 40t-164.5 87t-65.5 159.5q0 174 139 254.5t305 80.5t260 -25.5t174.5 -71t142.5 -135.5l-112 -102q-148 193 -436 193q-147 0 -227.5 -44.5t-80.5 -130.5q0 -51 38 -80.5t101.5 -47t143.5 -26.5t226.5 -29.5t264 -82.5
t117.5 -227t-143.5 -246.5t-347.5 -81.5q-205 0 -351.5 56.5t-267.5 197.5l123 113q179 -225 486 -225q229 0 282 67.5t53 114.5z" />
    <glyph glyph-name="t" unicode="t" horiz-adv-x="909" 
d="M252 266v664h-227v141h227v356h166v-356h426v-141h-426v-647q0 -88 46 -131t150 -43t258 32v-143q-199 -31 -300 -31t-172.5 35t-104.5 83t-38 98t-5 83z" />
    <glyph glyph-name="u" unicode="u" 
d="M616 109q227 0 431 215v747h165v-1071h-165v156q-86 -74 -197 -131.5t-264 -57.5t-292.5 79t-139.5 319v706h165v-674q-3 -167 86 -227.5t211 -60.5z" />
    <glyph glyph-name="v" unicode="v" 
d="M51 1071h180l451 -891l455 891h178l-549 -1071h-166z" />
    <glyph glyph-name="w" unicode="w" horiz-adv-x="1933" 
d="M31 1071h170l356 -872l332 872h155l332 -874l353 874h174l-453 -1071h-158l-325 868l-328 -868h-158z" />
    <glyph glyph-name="x" unicode="x" horiz-adv-x="1251" 
d="M516 563l-475 508h213l375 -397l362 397h213l-475 -508l524 -563h-217l-407 455l-414 -455h-217z" />
    <glyph glyph-name="y" unicode="y" 
d="M256 -225q84 0 162 23.5t182 242.5l-551 1030h180l459 -864l438 864h181l-627 -1208q-122 -240 -388 -240q-85 0 -192 33v151q72 -32 156 -32z" />
    <glyph glyph-name="z" unicode="z" horiz-adv-x="1251" 
d="M1174 141v-141h-1096v104l813 826h-770v141h1034l-4 -102l-811 -828h834z" />
    <glyph glyph-name="braceleft" unicode="{" horiz-adv-x="681" 
d="M430 -125q-106 0 -157.5 48t-51.5 159v321q0 143 -20.5 179t-44 45.5t-58.5 9.5v90q72 0 97.5 46t25.5 188v321q0 111 51.5 159t157.5 48h154v-90h-68q-66 0 -97.5 -19.5t-31.5 -89.5v-387q0 -111 -35 -158t-88 -61v-4q53 -14 88 -61.5t35 -157.5v-387q0 -70 32 -89.5
t97 -19.5h68v-90h-154z" />
    <glyph glyph-name="bar" unicode="|" horiz-adv-x="454" 
d="M166 1536h123v-2048h-123v2048z" />
    <glyph glyph-name="braceright" unicode="}" horiz-adv-x="681" 
d="M252 1489q106 0 157.5 -48t51.5 -159v-321q0 -142 20.5 -179t44 -46t58.5 -9v-90q-71 0 -97 -45.5t-26 -188.5v-321q0 -111 -51.5 -159t-157.5 -48h-154v90h68q66 0 97.5 19.5t31.5 89.5v387q0 111 35 158t88 61v4q-53 14 -88 61.5t-35 157.5v387q0 70 -32 89.5t-97 19.5
h-68v90h154z" />
    <glyph glyph-name="asciitilde" unicode="~" horiz-adv-x="1228" 
d="M272.5 620.5q73.5 28.5 143.5 28.5t209 -65q140 -74 213 -74t115 60.5t61 86.5l73 -94q-59 -84 -115 -130t-127 -46t-121 19.5t-100 48.5q-122 71 -228 71q-105 0 -181 -147l-74 94q58 119 131.5 147.5z" />
    <glyph glyph-name="Euro" horiz-adv-x="1478" 
d="M238 686v10l-2 56v24q0 18 4 62h-166l41 127h141q38 196 152 333q78 94 209 161t306 67q292 0 478 -160l-60 -178q-128 186 -401 186q-274 0 -418 -190q-66 -91 -94 -219h842l-41 -127h-821q-6 -35 -7 -74l2 -62v-16h777l-43 -127h-719q26 -157 127 -274
q148 -170 409 -170t420 202v-221q-81 -70 -208 -102q-128 -31 -209 -31q-161 0 -303 52t-234 159q-137 154 -168 385h-178l41 127h123z" />
    <glyph glyph-name="Euro" unicode="&#x20ac;" horiz-adv-x="1478" 
d="M238 686v10l-2 56v24q0 18 4 62h-166l41 127h141q38 196 152 333q78 94 209 161t306 67q292 0 478 -160l-60 -178q-128 186 -401 186q-274 0 -418 -190q-66 -91 -94 -219h842l-41 -127h-821q-6 -35 -7 -74l2 -62v-16h777l-43 -127h-719q26 -157 127 -274
q148 -170 409 -170t420 202v-221q-81 -70 -208 -102q-128 -31 -209 -31q-161 0 -303 52t-234 159q-137 154 -168 385h-178l41 127h123z" />
    <glyph glyph-name="Zcaron" horiz-adv-x="1593" 
d="M98 1329v160h1434v-113l-1196 -1216h1220v-160h-1519v106l1204 1223h-1143zM889 1587h-189l-225 291h172l148 -192l147 192h176z" />
    <glyph glyph-name="Zcaron" unicode="&#x17d;" horiz-adv-x="1593" 
d="M98 1329v160h1434v-113l-1196 -1216h1220v-160h-1519v106l1204 1223h-1143zM889 1587h-189l-225 291h172l148 -192l147 192h176z" />
    <glyph glyph-name="zcaron" horiz-adv-x="1251" 
d="M1174 141v-141h-1096v104l813 826h-770v141h1034l-4 -102l-811 -828h834zM719 1225h-189l-225 291h172l148 -193l147 193h176z" />
    <glyph glyph-name="zcaron" unicode="&#x17e;" horiz-adv-x="1251" 
d="M1174 141v-141h-1096v104l813 826h-770v141h1034l-4 -102l-811 -828h834zM719 1225h-189l-225 291h172l148 -193l147 193h176z" />
    <glyph glyph-name="nonbreakingspace" unicode="&#xa0;" horiz-adv-x="739" 
 />
    <glyph glyph-name="exclamdown" unicode="&#xa1;" horiz-adv-x="681" 
d="M446 834h-210v237h210v-237zM457 -418h-232l43 1047h140z" />
    <glyph glyph-name="cent" unicode="&#xa2;" horiz-adv-x="1478" 
d="M784 995h-36q-185 0 -317 -110t-132 -278.5t60.5 -259.5t156.5 -144l287 790q-16 2 -19 2zM133 552q0 287 177 436t438 149q57 0 106 -7l92 254h129l-100 -276q225 -68 338 -264l-144 -82q-65 108 -127.5 148t-117.5 59l-295 -811q127 -31 293.5 0.5t281.5 228.5l144 -80
q-176 -307 -576 -307q-112 0 -194 20l-101 -276h-131l117 315q-146 53 -238 195t-92 298z" />
    <glyph glyph-name="sterling" unicode="&#xa3;" horiz-adv-x="1478" 
d="M446 1040q0 -69 27 -239h367v-133h-357q0 -129 -12 -226.5t-53 -189.5q169 -89 323 -113t211 -24q152 0 225.5 63.5t96.5 204.5l153 -31q-30 -188 -140 -288.5t-355 -100.5t-582 156q-51 -55 -115.5 -96t-183.5 -60v170q185 41 222.5 158t40.5 203t3 174h-264v133h254
q-20 126 -20 307t156 301.5t391 116.5q202 -9 345 -95.5t212 -289.5l-154 -64q-93 297 -426 297q-197 0 -281 -91t-84 -243z" />
    <glyph glyph-name="currency" unicode="&#xa4;" horiz-adv-x="1478" 
d="M231 743.5q0 183.5 111 315.5l-111 115l78 77l113 -112q138 112 317.5 112t317.5 -112l112 112l78 -77l-110 -115q110 -131 110 -315.5t-110 -315.5l110 -115l-78 -77l-112 112q-138 -112 -317.5 -112t-317.5 112l-113 -112l-78 77l111 115q-111 132 -111 315.5z
M354 743.5q0 -79.5 30 -150.5t82 -123t122.5 -82t150.5 -30t149.5 30t122 82t83 123t30.5 150.5t-30.5 149.5t-83 122t-122 82.5t-149.5 30.5t-150.5 -30.5t-122.5 -82.5t-82 -122t-30 -149.5z" />
    <glyph glyph-name="yen" unicode="&#xa5;" horiz-adv-x="1478" 
d="M649 319h-362v127h362v152h-362v127h278l-524 764h235l463 -727l463 727h236l-525 -764h279v-127h-363v-152h363v-127h-363v-319h-180v319z" />
    <glyph glyph-name="brokenbar" unicode="&#xa6;" horiz-adv-x="454" 
d="M166 358h123v-716h-123v716zM166 1382h123v-716h-123v716z" />
    <glyph glyph-name="section" unicode="&#xa7;" horiz-adv-x="1024" 
d="M723 262q121 -106 121 -208q0 -128 -77.5 -220t-236.5 -92q-198 0 -270 99.5t-92 131.5l121 78q98 -168 237 -168q66 0 116 35.5t50 106.5t-59.5 127.5t-115.5 102t-139 113.5q-179 148 -249 238t-70 160q0 119 67.5 185.5t133.5 66.5h20q21 0 35 -4l4 4q-75 75 -104 119
t-29 103q0 122 73.5 204t217.5 82t216.5 -58.5t99 -95.5t43.5 -61l-121 -78q-41 68 -91 109.5t-118 41.5t-111 -29.5t-43 -87.5t37.5 -108t163.5 -152q231 -187 321.5 -299.5t90.5 -220.5t-76 -164t-166 -61zM346 922q-55 0 -95 -32t-40 -86t51 -115.5t137 -135.5t157 -131
t130 -57t93 38.5t34 84.5t-51.5 115t-155.5 161t-154.5 125t-105.5 33z" />
    <glyph glyph-name="dieresis" unicode="&#xa8;" horiz-adv-x="454" 
d="M-51 1489h184v-209h-184v209zM322 1489h184v-209h-184v209z" />
    <glyph glyph-name="copyright" unicode="&#xa9;" horiz-adv-x="1640" 
d="M844 238q-220 0 -352 143.5t-132 366.5t126.5 363t351.5 140q255 0 328 -127t85 -209h-137q-20 86 -88 149.5t-166 63.5q-177 0 -270.5 -110.5t-93.5 -268.5q0 -159 97.5 -274t246.5 -115q104 0 178.5 64t95.5 160h137q-37 -158 -141 -252t-266 -94zM39 745.5
q0 161.5 61.5 304t167 248t247.5 167t304 61.5t304.5 -61.5t249 -167t168 -248t61.5 -304t-61.5 -304t-168 -249t-249 -168t-304.5 -61.5t-304 61.5t-247.5 168t-167 249t-61.5 304zM162 743.5q0 -137.5 51 -257t140 -209t209 -140.5t257 -51t257 51t209 140.5t141.5 209
t52.5 257t-52.5 257t-141.5 208.5t-209 141.5t-257 52.5t-257 -52.5t-209 -141.5t-140 -208.5t-51 -257z" />
    <glyph glyph-name="ordfeminine" unicode="&#xaa;" horiz-adv-x="888" 
d="M684 1325q0 111 -224 111q-102 0 -168 -33.5t-91 -71.5l-92 58q50 57 126 97t232 40q227 0 283.5 -73t56.5 -134v-354q0 -34 10 -101h-106q-13 52 -13 78q-163 -98 -348 -98q-116 0 -200 43t-84 153q0 84 63.5 132.5t157.5 75t201.5 36.5t195.5 19v22zM180 1045
q0 -60 52 -85.5t111 -25.5q58 0 111.5 11t97.5 26.5t78 31t54 23.5v186q-254 -23 -379 -57.5t-125 -109.5z" />
    <glyph glyph-name="guillemotleft" unicode="&#xab;" horiz-adv-x="1024" 
d="M92 547l285 340h168l-281 -340l281 -340h-168zM479 547l285 340h168l-281 -340l281 -340h-168z" />
    <glyph glyph-name="logicalnot" unicode="&#xac;" horiz-adv-x="1228" 
d="M1010 655h-914v123h1037v-557h-123v434z" />
    <glyph glyph-name="hyphen" unicode="&#xad;" horiz-adv-x="681" 
d="M618 623v-152h-555v152h555z" />
    <glyph glyph-name="hyphen" unicode="&#x2010;" horiz-adv-x="681" 
d="M618 623v-152h-555v152h555z" />
    <glyph glyph-name="registered" unicode="&#xae;" horiz-adv-x="1640" 
d="M641 805h203q112 0 166.5 28.5t54.5 120.5q0 128 -89 137t-132 9h-203v-295zM641 694v-413h-123v929h369q158 0 229.5 -65.5t71.5 -192.5q0 -168 -93.5 -209t-140.5 -49l281 -413h-152l-272 413h-170zM162 743.5q0 -137.5 51 -257t140 -209t209 -140.5t257 -51t257 51
t209 140.5t141.5 209t52.5 257t-52.5 257t-141.5 208.5t-209 141.5t-257 52.5t-257 -52.5t-209 -141.5t-140 -208.5t-51 -257zM39 745.5q0 161.5 61.5 304t167 248t247.5 167t304 61.5t304.5 -61.5t249 -167t168 -248t61.5 -304t-61.5 -304t-168 -249t-249 -168
t-304.5 -61.5t-304 61.5t-247.5 168t-167 249t-61.5 304z" />
    <glyph glyph-name="macron" unicode="&#xaf;" horiz-adv-x="454" 
d="M526 1294h-598v119h598v-119z" />
    <glyph glyph-name="degree" unicode="&#xb0;" horiz-adv-x="819" 
d="M188 1434q92 92 222 92t221.5 -92t91.5 -222t-91.5 -221.5t-221.5 -91.5t-222 91.5t-92 221.5t92 222zM207 1212q0 -86 58.5 -144t144.5 -58t144 58t58 144t-58 144.5t-144 58.5t-144.5 -58.5t-58.5 -144.5z" />
    <glyph glyph-name="plusminus" unicode="&#xb1;" horiz-adv-x="1228" 
d="M553 1036h123v-352h457v-123h-457v-352h-123v352h-457v123h457v352zM96 123h1037v-123h-1037v123z" />
    <glyph glyph-name="twosuperior" unicode="&#xb2;" horiz-adv-x="960" 
d="M514 1411q-279 0 -338 -190l-108 67q54 150 186.5 194t234.5 44q207 0 305.5 -73t98.5 -189q0 -176 -128 -231.5t-224 -94.5t-188.5 -87t-151.5 -126h692v-115h-836v107q6 37 101.5 135t312 176.5t253 125t36.5 113.5t-71 105.5t-175 38.5z" />
    <glyph glyph-name="threesuperior" unicode="&#xb3;" horiz-adv-x="960" 
d="M852 1298q0 -152 -162 -208v-5q91 -28 143 -73.5t52 -133.5q0 -156 -120.5 -223t-305.5 -67q-233 0 -320.5 71.5t-113.5 96.5l94 92q124 -146 332 -146q113 0 179 30t94 60.5t28 73.5q0 160 -322 160h-154v115h140q303 0 303 133q0 59 -76 98t-185 39q-110 0 -186.5 -36
t-119.5 -87l-91 92q75 70 164.5 108t247.5 38q244 0 311.5 -84t67.5 -144z" />
    <glyph glyph-name="acute" unicode="&#xb4;" horiz-adv-x="454" 
d="M299 1516h233l-303 -291h-149z" />
    <glyph glyph-name="mu" unicode="&#xb5;" 
d="M616 109q227 0 431 215v747h165v-1071h-165v156q-86 -74 -195 -131.5t-240 -57.5t-193.5 26.5t-99.5 57.5v-428h-165v1448h165v-674q-3 -167 86 -227.5t211 -60.5z" />
    <glyph glyph-name="paragraph" unicode="&#xb6;" horiz-adv-x="1228" 
d="M543 1489h442v-1710h-123v1620h-239v-1620h-123v919q-176 4 -295 114.5t-119 290.5q0 179 120 282.5t337 103.5z" />
    <glyph glyph-name="periodcentered" unicode="&#xb7;" horiz-adv-x="739" 
d="M219 655.5q0 51.5 36 87t87 35.5t87 -35.5t36 -87t-36 -87.5t-87 -36t-87 36t-36 87.5z" />
    <glyph glyph-name="periodcentered" unicode="&#x22c5;" horiz-adv-x="739" 
d="M219 655.5q0 51.5 36 87t87 35.5t87 -35.5t36 -87t-36 -87.5t-87 -36t-87 36t-36 87.5z" />
    <glyph glyph-name="periodcentered" unicode="&#x2219;" horiz-adv-x="739" 
d="M219 655.5q0 51.5 36 87t87 35.5t87 -35.5t36 -87t-36 -87.5t-87 -36t-87 36t-36 87.5z" />
    <glyph glyph-name="cedilla" unicode="&#xb8;" horiz-adv-x="454" 
d="M204 -199q-36 0 -87 -16l-37 39l131 176h96l-94 -123l4 -4q25 8 69 8q91 0 130 -45.5t39 -93.5q0 -87 -66 -150t-188 -63q-71 0 -191 41l35 96q29 -10 60.5 -20.5t74.5 -10.5t79 18.5t36 62.5t-27.5 64.5t-63.5 20.5z" />
    <glyph glyph-name="onesuperior" unicode="&#xb9;" horiz-adv-x="960" 
d="M559 1526v-801h186v-115h-495v115h186v653l-203 -14v98q124 16 244 64h82z" />
    <glyph glyph-name="ordmasculine" unicode="&#xba;" horiz-adv-x="888" 
d="M152.5 938q-109.5 94 -109.5 247q0 154 110 247.5t290.5 93.5t291.5 -95t111 -246q0 -152 -109 -246.5t-292 -94.5t-292.5 94zM446 938q135 0 210 68.5t75 170.5t-71.5 180.5t-214.5 78.5q-144 0 -215.5 -78t-71.5 -180q0 -103 76.5 -171.5t211.5 -68.5z" />
    <glyph glyph-name="guillemotright" unicode="&#xbb;" horiz-adv-x="1024" 
d="M932 547l-285 -340h-168l281 340l-281 340h168zM545 547l-285 -340h-168l281 340l-281 340h168z" />
    <glyph glyph-name="onequarter" unicode="&#xbc;" horiz-adv-x="2217" 
d="M1806 328v477l-467 -477h467zM1929 0h-123v221h-620v88l590 606h153v-587h158v-107h-158v-221zM584 -37l921 1563h117l-920 -1563h-118zM559 1526v-801h186v-115h-495v115h186v653l-203 -14v98q124 16 244 64h82z" />
    <glyph glyph-name="onehalf" unicode="&#xbd;" horiz-adv-x="2217" 
d="M494 -37l921 1563h117l-920 -1563h-118zM559 1526v-801h186v-115h-495v115h186v653l-203 -14v98q124 16 244 64h82zM2011 0h-835v106q7 40 101.5 137t311 175.5t253 125t36.5 112.5t-71 105.5t-175 39.5q-275 0 -338 -191l-108 68q54 149 186.5 193t235.5 44
q207 0 305 -72.5t98 -189.5q0 -175 -128 -230.5t-224 -94.5t-188.5 -87t-151.5 -126h692v-115z" />
    <glyph glyph-name="threequarters" unicode="&#xbe;" horiz-adv-x="2217" 
d="M666 -37l921 1563h117l-920 -1563h-118zM893 1298q0 -152 -162 -208v-5q91 -28 143 -73.5t52 -133.5q0 -156 -120.5 -223t-305.5 -67q-233 0 -320.5 71.5t-113.5 96.5l94 92q124 -146 332 -146q113 0 179 30t94 60.5t28 73.5q0 160 -322 160h-154v115h140q303 0 303 133
q0 59 -76 98t-185 39q-110 0 -186.5 -36t-119.5 -87l-91 92q75 70 164.5 108t247.5 38q244 0 311.5 -84t67.5 -144zM1806 328v477l-467 -477h467zM1929 0h-123v221h-620v88l590 606h153v-587h158v-107h-158v-221z" />
    <glyph glyph-name="questiondown" unicode="&#xbf;" horiz-adv-x="1251" 
d="M602 -303q308 0 449 242l145 -84q-108 -159 -237.5 -234.5t-346.5 -75.5t-376.5 92.5t-159.5 278.5q0 157 54 221t103.5 96.5t108.5 69.5q160 82 198 126t49 86t13 108h152q4 -173 -62 -257t-212 -169q-145 -85 -188.5 -131.5t-43.5 -143.5q0 -98 95 -161.5t259 -63.5z
M571 1071h211v-237h-211v237z" />
    <glyph glyph-name="Agrave" unicode="&#xc0;" horiz-adv-x="1820" 
d="M1311 547l-400 801l-399 -801h799zM801 1489h221l764 -1489h-203l-192 387h-961l-194 -387h-201zM1059 1587h-150l-303 291h234z" />
    <glyph glyph-name="Aacute" unicode="&#xc1;" horiz-adv-x="1820" 
d="M1311 547l-400 801l-399 -801h799zM801 1489h221l764 -1489h-203l-192 387h-961l-194 -387h-201zM983 1878h234l-304 -291h-149z" />
    <glyph glyph-name="Acircumflex" unicode="&#xc2;" horiz-adv-x="1820" 
d="M1311 547l-400 801l-399 -801h799zM801 1489h221l764 -1489h-203l-192 387h-961l-194 -387h-201zM819 1878h189l225 -291h-172l-148 193l-147 -193h-176z" />
    <glyph glyph-name="Atilde" unicode="&#xc3;" horiz-adv-x="1820" 
d="M1311 547l-400 801l-399 -801h799zM801 1489h221l764 -1489h-203l-192 387h-961l-194 -387h-201zM1154.5 1664q-56.5 -42 -119.5 -42t-142 41q-31 14 -58.5 26.5t-56 12.5t-60.5 -18.5t-32 -75.5h-96q6 25 14 61.5t41 97t139 60.5q62 -1 120 -27q57 -26 85.5 -37.5
t58.5 -11.5t56 23.5t29 68.5h100q-22 -137 -78.5 -179z" />
    <glyph glyph-name="Adieresis" unicode="&#xc4;" horiz-adv-x="1820" 
d="M1311 547l-400 801l-399 -801h799zM801 1489h221l764 -1489h-203l-192 387h-961l-194 -387h-201zM633 1851h184v-209h-184v209zM1006 1851h184v-209h-184v209z" />
    <glyph glyph-name="Aring" unicode="&#xc5;" horiz-adv-x="1820" 
d="M1311 547l-400 801l-399 -801h799zM801 1489h221l764 -1489h-203l-192 387h-961l-194 -387h-201zM911.5 1591q-104.5 0 -175 74t-70.5 173t72 172t173.5 73t173.5 -73.5t72 -171.5q0 -99 -70.5 -173t-175 -74zM766 1837q0 -61 44 -103t102 -42t101.5 43t43.5 102
t-42.5 102t-88.5 43t-71.5 -12t-57 -42t-31.5 -91z" />
    <glyph glyph-name="AE" unicode="&#xc6;" horiz-adv-x="2048" 
d="M1006 584v782h-21l-461 -782h482zM1978 1489v-160h-792v-475h616v-160h-616v-534h815v-160h-995v424h-572l-252 -424h-209l885 1489h1120z" />
    <glyph glyph-name="Ccedilla" unicode="&#xc7;" horiz-adv-x="1820" 
d="M961 123q435 0 622 350l160 -78q-117 -225 -309.5 -325.5t-452.5 -104.5l-66 -88l5 -4q24 8 68 8q91 0 130 -44.5t39 -94.5q0 -87 -65 -150t-189 -63q-70 0 -190 41l35 96q29 -10 60.5 -20.5t72.5 -10.5q116 0 116 84q0 41 -27.5 61.5t-61.5 20.5q-35 0 -89 -16l-37 39
l105 141q-387 15 -590 230.5t-203 545.5q0 378 231.5 581.5t627.5 203.5t557 -157t210 -269l-155 -72q-78 182 -243 264t-378 82q-322 0 -493.5 -168t-171.5 -487q0 -266 177.5 -431t504.5 -165z" />
    <glyph glyph-name="Egrave" unicode="&#xc8;" horiz-adv-x="1593" 
d="M195 1489h1327v-160h-1147v-475h958v-160h-958v-534h1171v-160h-1351v1489zM944 1587h-149l-303 291h233z" />
    <glyph glyph-name="Eacute" unicode="&#xc9;" horiz-adv-x="1593" 
d="M195 1489h1327v-160h-1147v-475h958v-160h-958v-534h1171v-160h-1351v1489zM868 1878h234l-303 -291h-150z" />
    <glyph glyph-name="Ecircumflex" unicode="&#xca;" horiz-adv-x="1593" 
d="M195 1489h1327v-160h-1147v-475h958v-160h-958v-534h1171v-160h-1351v1489zM705 1878h188l225 -291h-172l-147 193l-148 -193h-176z" />
    <glyph glyph-name="Edieresis" unicode="&#xcb;" horiz-adv-x="1593" 
d="M195 1489h1327v-160h-1147v-475h958v-160h-958v-534h1171v-160h-1351v1489zM518 1851h184v-209h-184v209zM891 1851h184v-209h-184v209z" />
    <glyph glyph-name="Igrave" unicode="&#xcc;" horiz-adv-x="569" 
d="M195 1489h180v-1489h-180v1489zM432 1587h-149l-303 291h233z" />
    <glyph glyph-name="Iacute" unicode="&#xcd;" horiz-adv-x="569" 
d="M195 1489h180v-1489h-180v1489zM356 1878h234l-303 -291h-150z" />
    <glyph glyph-name="Icircumflex" unicode="&#xce;" horiz-adv-x="569" 
d="M195 1489h180v-1489h-180v1489zM193 1878h188l225 -291h-172l-147 193l-148 -193h-176z" />
    <glyph glyph-name="Idieresis" unicode="&#xcf;" horiz-adv-x="569" 
d="M195 1489h180v-1489h-180v1489zM6 1851h184v-209h-184v209zM379 1851h184v-209h-184v209z" />
    <glyph glyph-name="Eth" unicode="&#xd0;" horiz-adv-x="1820" 
d="M195 725h-152v111h152v653h735q358 0 577 -188t219 -543q0 -412 -249 -585t-605 -173h-677v725zM375 836h577v-111h-577v-565h526q474 0 557.5 228t83.5 384q0 292 -174 424.5t-438 132.5h-555v-493z" />
    <glyph glyph-name="Ntilde" unicode="&#xd1;" horiz-adv-x="1933" 
d="M195 1489h256l1108 -1225v1225h180v-1489h-180l-1192 1329v-1329h-172v1489zM1209.5 1663q-56.5 -41 -119.5 -41t-142 41q-31 14 -58.5 26.5t-56 12.5t-60.5 -18.5t-32 -75.5h-96q6 25 14.5 61.5t41.5 97t139 60.5q61 -1 119 -27q57 -26 85.5 -37.5t59.5 -11.5t56.5 23.5
t27.5 68.5h100q-22 -139 -78.5 -180z" />
    <glyph glyph-name="Ograve" unicode="&#xd2;" horiz-adv-x="1933" 
d="M94 728q0 192 65.5 339t181.5 248.5t275.5 156t448 54.5t531.5 -213.5t243 -577.5q0 -199 -75.5 -344t-198.5 -240.5t-280 -141.5t-318.5 -46t-318 46t-279.5 141.5t-199 240.5t-76 337zM279 746q0 -148 56 -270t195 -237.5t436 -115.5t493 162t196 483q0 256 -186.5 431
t-502 175t-501.5 -175t-186 -453zM1114 1587h-149l-303 291h233z" />
    <glyph glyph-name="Oacute" unicode="&#xd3;" horiz-adv-x="1933" 
d="M94 728q0 192 65.5 339t181.5 248.5t275.5 156t448 54.5t531.5 -213.5t243 -577.5q0 -199 -75.5 -344t-198.5 -240.5t-280 -141.5t-318.5 -46t-318 46t-279.5 141.5t-199 240.5t-76 337zM279 746q0 -148 56 -270t195 -237.5t436 -115.5t493 162t196 483q0 256 -186.5 431
t-502 175t-501.5 -175t-186 -453zM1038 1878h234l-303 -291h-150z" />
    <glyph glyph-name="Ocircumflex" unicode="&#xd4;" horiz-adv-x="1933" 
d="M94 728q0 192 65.5 339t181.5 248.5t275.5 156t448 54.5t531.5 -213.5t243 -577.5q0 -199 -75.5 -344t-198.5 -240.5t-280 -141.5t-318.5 -46t-318 46t-279.5 141.5t-199 240.5t-76 337zM279 746q0 -148 56 -270t195 -237.5t436 -115.5t493 162t196 483q0 256 -186.5 431
t-502 175t-501.5 -175t-186 -453zM874 1878h189l225 -291h-172l-147 193l-148 -193h-176z" />
    <glyph glyph-name="Otilde" unicode="&#xd5;" horiz-adv-x="1933" 
d="M94 728q0 192 65.5 339t181.5 248.5t275.5 156t448 54.5t531.5 -213.5t243 -577.5q0 -199 -75.5 -344t-198.5 -240.5t-280 -141.5t-318.5 -46t-318 46t-279.5 141.5t-199 240.5t-76 337zM279 746q0 -148 56 -270t195 -237.5t436 -115.5t493 162t196 483q0 256 -186.5 431
t-502 175t-501.5 -175t-186 -453zM1209.5 1663q-56.5 -41 -119.5 -41t-142 41q-31 14 -58.5 26.5t-56 12.5t-60.5 -18.5t-32 -75.5h-96q6 25 14.5 61.5t41.5 97t139 60.5q61 -1 119 -27q57 -26 85.5 -37.5t59.5 -11.5t56.5 23.5t27.5 68.5h100q-22 -139 -78.5 -180z" />
    <glyph glyph-name="Odieresis" unicode="&#xd6;" horiz-adv-x="1933" 
d="M94 728q0 192 65.5 339t181.5 248.5t275.5 156t448 54.5t531.5 -213.5t243 -577.5q0 -199 -75.5 -344t-198.5 -240.5t-280 -141.5t-318.5 -46t-318 46t-279.5 141.5t-199 240.5t-76 337zM279 746q0 -148 56 -270t195 -237.5t436 -115.5t493 162t196 483q0 256 -186.5 431
t-502 175t-501.5 -175t-186 -453zM688 1851h184v-209h-184v209zM1061 1851h184v-209h-184v209z" />
    <glyph glyph-name="multiply" unicode="&#xd7;" horiz-adv-x="1228" 
d="M995 989l90 -90l-383 -381l383 -383l-90 -88l-381 383l-381 -383l-90 88l383 383l-383 381l90 90l381 -383z" />
    <glyph glyph-name="Oslash" unicode="&#xd8;" horiz-adv-x="1933" 
d="M967 1374q-316 0 -502 -175.5t-186 -446.5t170 -441l946 944q-175 119 -428 119zM1655 768q0 245 -158 401l-942 -942q169 -104 412 -104q295 0 491.5 162t196.5 483zM326 188q-232 210 -232 561t244 564t629 213q320 0 546 -152l209 209h189l-293 -293
q221 -217 221 -555q0 -199 -75.5 -344t-198.5 -240.5t-280 -141.5t-318 -46q-303 0 -535 143l-252 -251h-188z" />
    <glyph glyph-name="Ugrave" unicode="&#xd9;" horiz-adv-x="1933" 
d="M1733 612q0 -362 -222 -505.5t-544.5 -143.5t-544 143t-221.5 506v877h180v-877q0 -256 155.5 -376.5t430 -120.5t430 120.5t155.5 376.5v877h181v-877zM1114 1587h-149l-303 291h233z" />
    <glyph glyph-name="Uacute" unicode="&#xda;" horiz-adv-x="1933" 
d="M1733 612q0 -362 -222 -505.5t-544.5 -143.5t-544 143t-221.5 506v877h180v-877q0 -256 155.5 -376.5t430 -120.5t430 120.5t155.5 376.5v877h181v-877zM1038 1878h234l-303 -291h-150z" />
    <glyph glyph-name="Ucircumflex" unicode="&#xdb;" horiz-adv-x="1933" 
d="M1733 612q0 -362 -222 -505.5t-544.5 -143.5t-544 143t-221.5 506v877h180v-877q0 -256 155.5 -376.5t430 -120.5t430 120.5t155.5 376.5v877h181v-877zM874 1878h189l225 -291h-172l-147 193l-148 -193h-176z" />
    <glyph glyph-name="Udieresis" unicode="&#xdc;" horiz-adv-x="1933" 
d="M1733 612q0 -362 -222 -505.5t-544.5 -143.5t-544 143t-221.5 506v877h180v-877q0 -256 155.5 -376.5t430 -120.5t430 120.5t155.5 376.5v877h181v-877zM688 1851h184v-209h-184v209zM1061 1851h184v-209h-184v209z" />
    <glyph glyph-name="Yacute" unicode="&#xdd;" horiz-adv-x="1818" 
d="M999 0h-180v602l-768 887h236l622 -727l623 727h235l-768 -887v-602zM981 1878h233l-303 -291h-149z" />
    <glyph glyph-name="Thorn" unicode="&#xde;" horiz-adv-x="1703" 
d="M1067 1237q575 0 575 -426q0 -238 -157 -333t-418 -95h-692v-383h-180v1489h180v-252h692zM375 543h645q223 0 336.5 57t113.5 210t-112.5 210t-337.5 57h-645v-534z" />
    <glyph glyph-name="germandbls" unicode="&#xdf;" 
d="M649 1384q-330 0 -330 -380v-1004h-165v1044q0 240 133 361t379 121t375.5 -114t129.5 -284q0 -126 -64 -198t-138 -88v-4q145 -31 235 -134.5t90 -291.5q0 -292 -172 -370.5t-290 -78.5t-189.5 19.5t-148.5 62.5l61 133q47 -25 108.5 -49.5t150.5 -24.5q166 0 239 89
t73 223q-2 182 -110.5 254.5t-317.5 72.5h-53v142q172 0 236.5 35.5t94.5 87t30 137.5q0 117 -98.5 178t-258.5 61z" />
    <glyph glyph-name="agrave" unicode="&#xe0;" 
d="M66 286q0 98 43 164t116.5 110t170 70.5t205 44t221 29t216.5 23.5v41q0 149 -140 175t-225 26q-165 0 -257 -51.5t-160 -129.5l-125 86q23 29 59.5 68t143.5 100.5t348 61.5q352 0 437 -122t85 -224v-592q0 -75 19 -166h-166q-21 88 -21 129q-249 -162 -535 -162
q-285 0 -360 110.5t-75 208.5zM223 300q0 -118 88.5 -158t178.5 -40q148 0 279.5 47t268.5 121v322q-182 -18 -332.5 -37.5t-316.5 -70.5t-166 -184zM831 1225h-149l-303 291h233z" />
    <glyph glyph-name="aacute" unicode="&#xe1;" 
d="M66 286q0 98 43 164t116.5 110t170 70.5t205 44t221 29t216.5 23.5v41q0 149 -140 175t-225 26q-165 0 -257 -51.5t-160 -129.5l-125 86q23 29 59.5 68t143.5 100.5t348 61.5q352 0 437 -122t85 -224v-592q0 -75 19 -166h-166q-21 88 -21 129q-249 -162 -535 -162
q-285 0 -360 110.5t-75 208.5zM223 300q0 -118 88.5 -158t178.5 -40q148 0 279.5 47t268.5 121v322q-182 -18 -332.5 -37.5t-316.5 -70.5t-166 -184zM756 1516h233l-303 -291h-149z" />
    <glyph glyph-name="acircumflex" unicode="&#xe2;" 
d="M66 286q0 98 43 164t116.5 110t170 70.5t205 44t221 29t216.5 23.5v41q0 149 -140 175t-225 26q-165 0 -257 -51.5t-160 -129.5l-125 86q23 29 59.5 68t143.5 100.5t348 61.5q352 0 437 -122t85 -224v-592q0 -75 19 -166h-166q-21 88 -21 129q-249 -162 -535 -162
q-285 0 -360 110.5t-75 208.5zM223 300q0 -118 88.5 -158t178.5 -40q148 0 279.5 47t268.5 121v322q-182 -18 -332.5 -37.5t-316.5 -70.5t-166 -184zM592 1516h188l226 -291h-172l-148 192l-147 -192h-177z" />
    <glyph glyph-name="atilde" unicode="&#xe3;" 
d="M66 286q0 98 43 164t116.5 110t170 70.5t205 44t221 29t216.5 23.5v41q0 149 -140 175t-225 26q-165 0 -257 -51.5t-160 -129.5l-125 86q23 29 59.5 68t143.5 100.5t348 61.5q352 0 437 -122t85 -224v-592q0 -75 19 -166h-166q-21 88 -21 129q-249 -162 -535 -162
q-285 0 -360 110.5t-75 208.5zM223 300q0 -118 88.5 -158t178.5 -40q148 0 279.5 47t268.5 121v322q-182 -18 -332.5 -37.5t-316.5 -70.5t-166 -184zM927 1301.5q-57 -41.5 -121 -41.5t-140 40q-31 14 -58.5 26.5t-56.5 12.5t-60.5 -18t-31.5 -76h-97q6 25 14.5 61.5
t41.5 97t139 60.5q69 0 145 -38t113 -37q37 0 62.5 23.5t27.5 68.5h101q-22 -138 -79 -179.5z" />
    <glyph glyph-name="adieresis" unicode="&#xe4;" 
d="M66 286q0 98 43 164t116.5 110t170 70.5t205 44t221 29t216.5 23.5v41q0 149 -140 175t-225 26q-165 0 -257 -51.5t-160 -129.5l-125 86q23 29 59.5 68t143.5 100.5t348 61.5q352 0 437 -122t85 -224v-592q0 -75 19 -166h-166q-21 88 -21 129q-249 -162 -535 -162
q-285 0 -360 110.5t-75 208.5zM223 300q0 -118 88.5 -158t178.5 -40q148 0 279.5 47t268.5 121v322q-182 -18 -332.5 -37.5t-316.5 -70.5t-166 -184zM406 1489h184v-209h-184v209zM778 1489h185v-209h-185v209z" />
    <glyph glyph-name="aring" unicode="&#xe5;" 
d="M66 286q0 98 43 164t116.5 110t170 70.5t205 44t221 29t216.5 23.5v41q0 149 -140 175t-225 26q-165 0 -257 -51.5t-160 -129.5l-125 86q23 29 59.5 68t143.5 100.5t348 61.5q352 0 437 -122t85 -224v-592q0 -75 19 -166h-166q-21 88 -21 129q-249 -162 -535 -162
q-285 0 -360 110.5t-75 208.5zM223 300q0 -118 88.5 -158t178.5 -40q148 0 279.5 47t268.5 121v322q-182 -18 -332.5 -37.5t-316.5 -70.5t-166 -184zM684 1229q-103 0 -174.5 73t-71.5 173q0 101 73.5 173t172.5 72t172.5 -72t73.5 -173q0 -100 -71.5 -173t-174.5 -73z
M539 1474.5q0 -60.5 44.5 -103t102.5 -42.5q57 0 100 43t43 102.5t-43 102.5t-88 43t-70.5 -12.5t-57 -42.5t-31.5 -90.5z" />
    <glyph glyph-name="ae" unicode="&#xe6;" horiz-adv-x="2048" 
d="M903 774q0 189 -287 189q-131 0 -219 -53t-131 -117l-133 90q87 130 227 175.5t250 45.5t180 -18.5t116 -46t74 -60.5t48 -59q79 84 166.5 134t219.5 50q256 0 412 -150t156 -450h-919q0 -189 116.5 -292t272.5 -103q190 0 268 86t111 127l127 -95q-37 -45 -137.5 -152.5
t-401.5 -107.5q-191 0 -287 80t-133 115q-245 -195 -546 -195q-212 0 -299.5 95.5t-87.5 222.5q0 233 211.5 313t369.5 99.5t256 29.5v47zM231 281q0 -80 63.5 -126t175.5 -46t228.5 46t204.5 105v334q-350 -29 -511 -110t-161 -203zM1810 645q0 29 -20.5 82t-97 144.5
t-256.5 93.5t-255 -93.5t-93.5 -148.5t-18.5 -78h741z" />
    <glyph glyph-name="ccedilla" unicode="&#xe7;" 
d="M662 -199q-34 0 -89 -16l-36 39l108 147q-260 12 -419.5 170t-159.5 412t177 402.5t437 148.5q217 0 348 -81t211 -212l-143 -82q-60 97 -152 165.5t-270 68.5t-310.5 -110.5t-132.5 -330.5q0 -174 132.5 -293.5t341.5 -119.5t295.5 86t129.5 159l144 -80
q-160 -285 -533 -305l-71 -92l4 -4q24 8 68 8q91 0 130 -44.5t39 -94.5q0 -89 -65.5 -151t-188.5 -62q-70 0 -190 41l35 96q29 -10 60.5 -20.5t74.5 -10.5t79 18.5t36 62.5t-28 64.5t-62 20.5z" />
    <glyph glyph-name="egrave" unicode="&#xe8;" 
d="M234 129.5q-168 162.5 -168 412.5t166 406t431 156t445 -150t176 -452h-1053q13 -161 135.5 -277t348.5 -116t305.5 89t103.5 119l129 -94q-41 -43 -86 -89t-150.5 -106.5t-360.5 -60.5q-254 0 -422 162.5zM377 877q-105 -86 -139 -234h866q-25 138 -142.5 229t-298.5 91
t-286 -86zM831 1225h-149l-303 291h233z" />
    <glyph glyph-name="eacute" unicode="&#xe9;" 
d="M234 129.5q-168 162.5 -168 412.5t166 406t431 156t445 -150t176 -452h-1053q13 -161 135.5 -277t348.5 -116t305.5 89t103.5 119l129 -94q-41 -43 -86 -89t-150.5 -106.5t-360.5 -60.5q-254 0 -422 162.5zM377 877q-105 -86 -139 -234h866q-25 138 -142.5 229t-298.5 91
t-286 -86zM756 1516h233l-303 -291h-149z" />
    <glyph glyph-name="ecircumflex" unicode="&#xea;" 
d="M234 129.5q-168 162.5 -168 412.5t166 406t431 156t445 -150t176 -452h-1053q13 -161 135.5 -277t348.5 -116t305.5 89t103.5 119l129 -94q-41 -43 -86 -89t-150.5 -106.5t-360.5 -60.5q-254 0 -422 162.5zM377 877q-105 -86 -139 -234h866q-25 138 -142.5 229t-298.5 91
t-286 -86zM592 1516h188l226 -291h-172l-148 192l-147 -192h-177z" />
    <glyph glyph-name="edieresis" unicode="&#xeb;" 
d="M234 129.5q-168 162.5 -168 412.5t166 406t431 156t445 -150t176 -452h-1053q13 -161 135.5 -277t348.5 -116t305.5 89t103.5 119l129 -94q-41 -43 -86 -89t-150.5 -106.5t-360.5 -60.5q-254 0 -422 162.5zM377 877q-105 -86 -139 -234h866q-25 138 -142.5 229t-298.5 91
t-286 -86zM406 1489h184v-209h-184v209zM778 1489h185v-209h-185v209z" />
    <glyph glyph-name="igrave" unicode="&#xec;" horiz-adv-x="456" 
d="M145 1071h166v-1071h-166v1071zM377 1225h-150l-303 291h234z" />
    <glyph glyph-name="iacute" unicode="&#xed;" horiz-adv-x="456" 
d="M145 1071h166v-1071h-166v1071zM301 1516h234l-304 -291h-149z" />
    <glyph glyph-name="icircumflex" unicode="&#xee;" horiz-adv-x="456" 
d="M145 1071h166v-1071h-166v1071zM137 1516h189l225 -291h-172l-148 192l-147 -192h-176z" />
    <glyph glyph-name="idieresis" unicode="&#xef;" horiz-adv-x="456" 
d="M145 1071h166v-1071h-166v1071zM-49 1489h184v-209h-184v209zM324 1489h184v-209h-184v209z" />
    <glyph glyph-name="eth" unicode="&#xf0;" 
d="M1021 833q-114 130 -338 130t-338 -130t-114 -312t121.5 -297t330.5 -115t330.5 115.5t121.5 296.5q0 182 -114 312zM1300 549q0 -135 -45 -244.5t-126.5 -184.5t-195.5 -114t-323 -39t-376.5 156t-167.5 432q0 233 165.5 391t425.5 158q182 0 338 -100h4
q-138 165 -327 276l-264 -123l-82 74l231 108q-82 42 -215 82l94 105q134 -37 277 -113l239 113l84 -74l-217 -102q341 -227 411 -446.5t70 -354.5z" />
    <glyph glyph-name="ntilde" unicode="&#xf1;" 
d="M750 963q-222 0 -431 -215v-748h-165v1071h165v-156q86 74 197 131.5t264 57.5q269 0 350.5 -130t81.5 -267v-707h-165v674q4 167 -86 228t-211 61zM927 1301.5q-57 -41.5 -121 -41.5t-140 40q-31 14 -58.5 26.5t-56.5 12.5t-60.5 -18t-31.5 -76h-97q6 25 14.5 61.5
t41.5 97t139 60.5q69 0 145 -38t113 -37q37 0 62.5 23.5t27.5 68.5h101q-22 -138 -79 -179.5z" />
    <glyph glyph-name="ograve" unicode="&#xf2;" 
d="M235 122.5q-169 155.5 -169 432.5q0 233 169.5 391t446.5 158t447.5 -156.5t170.5 -392.5q0 -277 -169 -432.5t-448 -155.5t-448 155.5zM1135 521q0 182 -114 312t-337 130t-338 -131t-115 -311t122.5 -296t330.5 -116t329.5 115t121.5 297zM831 1225h-149l-303 291h233z
" />
    <glyph glyph-name="oacute" unicode="&#xf3;" 
d="M235 122.5q-169 155.5 -169 432.5q0 233 169.5 391t446.5 158t447.5 -156.5t170.5 -392.5q0 -277 -169 -432.5t-448 -155.5t-448 155.5zM1135 521q0 182 -114 312t-337 130t-338 -131t-115 -311t122.5 -296t330.5 -116t329.5 115t121.5 297zM756 1516h233l-303 -291h-149
z" />
    <glyph glyph-name="ocircumflex" unicode="&#xf4;" 
d="M235 122.5q-169 155.5 -169 432.5q0 233 169.5 391t446.5 158t447.5 -156.5t170.5 -392.5q0 -277 -169 -432.5t-448 -155.5t-448 155.5zM1135 521q0 182 -114 312t-337 130t-338 -131t-115 -311t122.5 -296t330.5 -116t329.5 115t121.5 297zM592 1516h188l226 -291h-172
l-148 192l-147 -192h-177z" />
    <glyph glyph-name="otilde" unicode="&#xf5;" 
d="M235 122.5q-169 155.5 -169 432.5q0 233 169.5 391t446.5 158t447.5 -156.5t170.5 -392.5q0 -277 -169 -432.5t-448 -155.5t-448 155.5zM1135 521q0 182 -114 312t-337 130t-338 -131t-115 -311t122.5 -296t330.5 -116t329.5 115t121.5 297zM927 1301.5
q-57 -41.5 -121 -41.5t-140 40q-31 14 -58.5 26.5t-56.5 12.5t-60.5 -18t-31.5 -76h-97q6 25 14.5 61.5t41.5 97t139 60.5q69 0 145 -38t113 -37q37 0 62.5 23.5t27.5 68.5h101q-22 -138 -79 -179.5z" />
    <glyph glyph-name="odieresis" unicode="&#xf6;" 
d="M235 122.5q-169 155.5 -169 432.5q0 233 169.5 391t446.5 158t447.5 -156.5t170.5 -392.5q0 -277 -169 -432.5t-448 -155.5t-448 155.5zM1135 521q0 182 -114 312t-337 130t-338 -131t-115 -311t122.5 -296t330.5 -116t329.5 115t121.5 297zM406 1489h184v-209h-184v209z
M778 1489h185v-209h-185v209z" />
    <glyph glyph-name="divide" unicode="&#xf7;" horiz-adv-x="1228" 
d="M492 96q0 51 35.5 87t87 36t87 -36t35.5 -87t-35.5 -87t-87 -36t-87 36t-35.5 87zM96 580h1037v-123h-1037v123zM492 940q0 51 35.5 87t87 36t87 -36t35.5 -87t-35.5 -87t-87 -36t-87 36t-35.5 87z" />
    <glyph glyph-name="oslash" unicode="&#xf8;" 
d="M1135 522q0 182 -107 301l-606 -649q106 -66 262 -65q208 0 329.5 115.5t121.5 297.5zM699 963q-238 0 -353 -131t-115 -300t99 -280l606 645q-101 66 -237 66zM221 135q-155 155 -155 404t169.5 407t448.5 158q208 0 360 -92l185 196h160l-252 -268q163 -155 163 -385
q0 -277 -169 -432.5t-447 -155.5q-217 0 -369 94l-192 -206h-166z" />
    <glyph glyph-name="ugrave" unicode="&#xf9;" 
d="M616 109q227 0 431 215v747h165v-1071h-165v156q-86 -74 -197 -131.5t-264 -57.5t-292.5 79t-139.5 319v706h165v-674q-3 -167 86 -227.5t211 -60.5zM831 1225h-149l-303 291h233z" />
    <glyph glyph-name="uacute" unicode="&#xfa;" 
d="M616 109q227 0 431 215v747h165v-1071h-165v156q-86 -74 -197 -131.5t-264 -57.5t-292.5 79t-139.5 319v706h165v-674q-3 -167 86 -227.5t211 -60.5zM756 1516h233l-303 -291h-149z" />
    <glyph glyph-name="ucircumflex" unicode="&#xfb;" 
d="M616 109q227 0 431 215v747h165v-1071h-165v156q-86 -74 -197 -131.5t-264 -57.5t-292.5 79t-139.5 319v706h165v-674q-3 -167 86 -227.5t211 -60.5zM592 1516h188l226 -291h-172l-148 192l-147 -192h-177z" />
    <glyph glyph-name="udieresis" unicode="&#xfc;" 
d="M616 109q227 0 431 215v747h165v-1071h-165v156q-86 -74 -197 -131.5t-264 -57.5t-292.5 79t-139.5 319v706h165v-674q-3 -167 86 -227.5t211 -60.5zM406 1489h184v-209h-184v209zM778 1489h185v-209h-185v209z" />
    <glyph glyph-name="yacute" unicode="&#xfd;" 
d="M256 -225q84 0 162 23.5t182 242.5l-551 1030h180l459 -864l438 864h181l-627 -1208q-122 -240 -388 -240q-85 0 -192 33v151q72 -32 156 -32zM756 1516h233l-303 -291h-149z" />
    <glyph glyph-name="thorn" unicode="&#xfe;" horiz-adv-x="1478" 
d="M1113.5 216.5q133.5 107.5 133.5 332.5q0 173 -127 293.5t-336 120.5q-122 0 -248.5 -67t-216.5 -161v-416q90 -95 200.5 -152.5t285.5 -57.5t308.5 107.5zM154 1489h165v-580q125 103 232.5 149t269.5 46t272.5 -53.5t181.5 -135t104.5 -180t33.5 -190.5t-31.5 -194.5
t-150.5 -243t-432 -140.5q-210 0 -317 69.5t-163 110.5v-524h-165v1866z" />
    <glyph glyph-name="ydieresis" unicode="&#xff;" 
d="M256 -225q84 0 162 23.5t182 242.5l-551 1030h180l459 -864l438 864h181l-627 -1208q-122 -240 -388 -240q-85 0 -192 33v151q72 -32 156 -32zM406 1489h184v-209h-184v209zM778 1489h185v-209h-185v209z" />
    <glyph glyph-name="OE" unicode="&#x152;" horiz-adv-x="2048" 
d="M6 733q0 129 33 266.5t107.5 249t199.5 184t288 72.5t286 -8t268 -8h809v-160h-783v-479h607v-160h-607v-530h809v-160h-954l-401 -16q-346 0 -504 212t-158 537zM1034 1055q0 84 -8 141t-57 107.5t-269 50.5q-271 0 -390.5 -176.5t-119.5 -456.5t126 -433t405 -153
q198 0 247.5 55.5t57.5 106.5t8 113v645z" />
    <glyph glyph-name="oe" unicode="&#x153;" horiz-adv-x="2048" 
d="M1248 202.5q111 -93.5 238 -93.5t203 59t142 149l133 -94q-99 -126 -173.5 -171.5t-150.5 -65t-170 -19.5q-163 0 -259.5 69t-163.5 177q-148 -246 -486 -246q-224 0 -364 150t-140 414q0 263 139.5 418t394.5 155t343 -106.5t108 -135.5q155 242 424 242t404 -180
t121 -420h-858q4 -208 115 -301.5zM873.5 224.5q93.5 115.5 93.5 303.5q0 235 -112 335t-269 100q-240 0 -301.5 -150.5t-61.5 -262.5t23.5 -187.5t97 -164.5t255.5 -89q181 0 274.5 115.5zM1230.5 867.5q-89.5 -95.5 -93.5 -222.5h682q-15 154 -114 236t-242 82
t-232.5 -95.5z" />
    <glyph glyph-name="Scaron" unicode="&#x160;" horiz-adv-x="1703" 
d="M844 123q247 0 415 69.5t168 223.5t-147 196.5t-264 55t-238 25t-385 55.5t-264 331q0 229 190 338t483 109t482 -90t281 -215l-131 -107q-23 27 -65 71t-163.5 116.5t-382.5 72.5q-364 0 -437 -98t-73 -175t55.5 -124t147.5 -72.5t209 -36t329.5 -31.5t385 -106.5
t172.5 -310.5q0 -198 -192 -327.5t-532 -129.5q-475 0 -623 145.5t-195 198.5l139 119q33 -43 79 -96.5t122.5 -99.5t191.5 -76.5t242 -30.5zM944 1587h-188l-226 291h172l148 -192l147 192h177z" />
    <glyph glyph-name="scaron" unicode="&#x161;" horiz-adv-x="1251" 
d="M999 291q0 76 -65.5 110.5t-164.5 52t-215 29t-215 40t-164.5 87t-65.5 159.5q0 174 139 254.5t305 80.5t260 -25.5t174.5 -71t142.5 -135.5l-112 -102q-148 193 -436 193q-147 0 -227.5 -44.5t-80.5 -130.5q0 -51 38 -80.5t101.5 -47t143.5 -26.5t226.5 -29.5t264 -82.5
t117.5 -227t-143.5 -246.5t-347.5 -81.5q-205 0 -351.5 56.5t-267.5 197.5l123 113q179 -225 486 -225q229 0 282 67.5t53 114.5zM719 1225h-189l-225 291h172l148 -193l147 193h176z" />
    <glyph glyph-name="Ydieresis" unicode="&#x178;" horiz-adv-x="1818" 
d="M999 0h-180v602l-768 887h236l622 -727l623 727h235l-768 -887v-602zM631 1851h184v-209h-184v209zM1004 1851h184v-209h-184v209z" />
    <glyph glyph-name="florin" unicode="&#x192;" horiz-adv-x="1478" 
d="M1193 1384q-65 0 -146.5 -24t-137.5 -283l-24 -123h379v-141h-408l-133 -678q-74 -421 -211 -466.5t-243 -45.5t-199 19l18 143q99 -21 173 -21q75 0 126 20.5t81 63.5t46 107.5t33 150.5l137 707h-358v141h387l24 136q85 436 424 436q73 0 207 -17l-25 -143
q-85 18 -150 18z" />
    <glyph glyph-name="circumflex" unicode="&#x2c6;" horiz-adv-x="454" 
d="M135 1516h189l225 -291h-172l-148 192l-147 -192h-176z" />
    <glyph glyph-name="tilde" unicode="&#x2dc;" horiz-adv-x="454" 
d="M470.5 1302q-56.5 -42 -120.5 -42t-141 40q-31 14 -58.5 26.5t-56 12.5t-60.5 -18t-32 -76h-96q6 25 14 61.5t41 97t139 60.5q68 0 145 -38t114 -37q36 0 61.5 23.5t28.5 68.5h100q-22 -137 -78.5 -179z" />
    <glyph glyph-name="endash" unicode="&#x2013;" horiz-adv-x="1024" 
d="M0 602h1024v-110h-1024v110z" />
    <glyph glyph-name="emdash" unicode="&#x2014;" horiz-adv-x="2048" 
d="M0 492v110h2048v-110h-2048z" />
    <glyph glyph-name="quoteleft" unicode="&#x2018;" horiz-adv-x="569" 
d="M381 1178v-213h-211v223l129 301h100l-112 -311h94z" />
    <glyph glyph-name="quoteright" unicode="&#x2019;" horiz-adv-x="569" 
d="M188 1276v213h211v-223l-129 -301h-100l113 311h-95z" />
    <glyph glyph-name="quotesinglbase" unicode="&#x201a;" horiz-adv-x="569" 
d="M188 0v213h211v-223l-129 -301h-100l113 311h-95z" />
    <glyph glyph-name="quotedblleft" unicode="&#x201c;" horiz-adv-x="1024" 
d="M815 1178v-213h-201v223l129 301h101l-113 -311h84zM381 1178v-213h-201v223l129 301h101l-113 -311h84z" />
    <glyph glyph-name="quotedblright" unicode="&#x201d;" horiz-adv-x="1024" 
d="M643 1276v213h201v-223l-129 -301h-101l113 311h-84zM209 1276v213h201v-223l-129 -301h-101l113 311h-84z" />
    <glyph glyph-name="quotedblbase" unicode="&#x201e;" horiz-adv-x="1024" 
d="M643 0v213h201v-213l-127 -311h-99l107 311h-82zM205 0v213h201v-213l-127 -311h-99l107 311h-82z" />
    <glyph glyph-name="dagger" unicode="&#x2020;" horiz-adv-x="1024" 
d="M557 -281h-90q0 185 -11.5 371t-19.5 313t-20 207l53 348l-20 17l-375 -43v170l375 -37l20 18l-49 443h184l-49 -443l20 -18l375 37v-170l-375 43l-20 -17l53 -348q-12 -80 -20 -207t-19.5 -313t-11.5 -371z" />
    <glyph glyph-name="daggerdbl" unicode="&#x2021;" horiz-adv-x="1024" 
d="M74 309l375 -43l20 17l-49 358l49 317l-20 17l-375 -43v170l375 -37l20 18l-49 443h184l-49 -443l20 -18l375 37v-170l-375 43l-20 -17l49 -317l-49 -358l20 -17l375 43v-170l-375 37l-20 -18l49 -443h-184l49 443l-20 18l-375 -37v170z" />
    <glyph glyph-name="bullet" unicode="&#x2022;" horiz-adv-x="1024" 
d="M246.5 1005q107.5 111 265.5 111t265.5 -111t107.5 -261t-108 -260.5t-265 -110.5t-265 110t-108 261q0 150 107.5 261z" />
    <glyph glyph-name="ellipsis" unicode="&#x2026;" horiz-adv-x="2048" 
d="M238 238h211v-238h-211v238zM920 238h210v-238h-210v238zM1602 238h210v-238h-210v238z" />
    <glyph glyph-name="perthousand" unicode="&#x2030;" horiz-adv-x="2048" 
d="M143 1218.5q0 -77.5 53.5 -131t131.5 -53.5t131 53.5t53 131t-53 131t-131 53.5t-131.5 -53.5t-53.5 -131zM20 1218.5q0 63.5 25 120t66 97.5t97 65.5t119.5 24.5t120 -24.5t97.5 -65.5t65.5 -97.5t24.5 -120t-24.5 -120t-65.5 -97t-97.5 -65.5t-120 -25t-119.5 25
t-97 65.5t-66 97t-25 120zM1004 1526h122l-868 -1563h-123zM786 344q0 -78 53.5 -131t131.5 -53t131 53t53 131t-53 131t-131 53t-131.5 -53t-53.5 -131zM664 344.5q0 63.5 24.5 119.5t65.5 97t97 65.5t119.5 24.5t120 -24.5t97.5 -65.5t65.5 -97t24.5 -119.5t-24.5 -120
t-65.5 -97.5t-97.5 -65.5t-120 -24.5t-119.5 24.5t-97 65.5t-65.5 97.5t-24.5 120zM1413 344.5q0 63.5 24.5 119.5t65.5 97t97.5 65.5t120 24.5t119.5 -24.5t97 -65.5t66 -97t25 -119.5t-25 -120t-66 -97.5t-97 -65.5t-119.5 -24.5t-120 24.5t-97.5 65.5t-65.5 97.5
t-24.5 120zM1536 344q0 -78 53 -131t131 -53t131.5 53t53.5 131t-53.5 131t-131.5 53t-131 -53t-53 -131z" />
    <glyph glyph-name="guilsinglleft" unicode="&#x2039;" horiz-adv-x="681" 
d="M115 547l284 340h168l-280 -340l280 -340h-168z" />
    <glyph glyph-name="guilsinglright" unicode="&#x203a;" horiz-adv-x="681" 
d="M567 547l-284 -340h-168l280 340l-280 340h168z" />
    <glyph glyph-name="trademark" unicode="&#x2122;" horiz-adv-x="2048" 
d="M332 1378h-266v111h655v-111h-266v-733h-123v733zM872 1489h181l266 -674l266 674h180v-844h-123v672h-4l-270 -672h-98l-271 672h-4v-672h-123v844z" />
    <glyph glyph-name="fraction" horiz-adv-x="342" 
d="M-348 -37l921 1563h117l-919 -1563h-119z" />
    <glyph glyph-name="fi" horiz-adv-x="1478" 
d="M297 1130q0 396 381 396q162 0 278 -29v-147q-134 34 -224 34q-164 0 -216.5 -65t-52.5 -201v-69h440v-142h-440v-907h-166v907h-270v142h270v81zM1149 1071h166v-1071h-166v1071zM1325 1489v-191h-190v191h190z" />
    <glyph glyph-name="fl" horiz-adv-x="1478" 
d="M297 1130q0 396 381 396q162 0 278 -29v-147q-134 34 -224 34q-164 0 -216.5 -65t-52.5 -201v-69h440v-142h-440v-907h-166v907h-270v142h270v81zM1149 1489h166v-1489h-166v1489z" />
    <glyph glyph-name="breve" horiz-adv-x="454" 
d="M227.5 1354q77.5 0 132 36.5t56.5 120.5h110q-6 -114 -46 -166.5t-98 -81t-248.5 -28.5t-205.5 276h111q2 -84 56.5 -120.5t132 -36.5z" />
    <glyph glyph-name="dotaccent" horiz-adv-x="454" 
d="M135 1489h184v-209h-184v209z" />
    <glyph glyph-name="ring" horiz-adv-x="454" 
d="M53 1301.5q-71 72.5 -71 173.5q0 102 73 173.5t173 71.5t172.5 -72.5t72.5 -172.5t-71 -173t-174.5 -73t-174.5 72.5zM82 1474.5q0 -60.5 44.5 -103t102.5 -42.5q57 0 100.5 43t43.5 102.5t-42.5 102.5t-88.5 43t-71.5 -12.5t-57 -42.5t-31.5 -90.5z" />
    <glyph glyph-name="hungarumlaut" horiz-adv-x="454" 
d="M123 1516h233l-303 -291h-149zM477 1516h234l-303 -291h-150z" />
    <glyph glyph-name="ogonek" horiz-adv-x="454" 
d="M339 -471q-104 0 -167 54.5t-63 136.5t50 148t173 132h137q-170 -111 -187.5 -171t-17.5 -92q0 -57 38 -84.5t86 -27.5t124 31l35 -82q-104 -45 -208 -45z" />
    <glyph glyph-name="caron" horiz-adv-x="454" 
d="M319 1225h-188l-225 291h172l147 -193l148 193h176z" />
    <glyph glyph-name="Lslash" horiz-adv-x="1593" 
d="M195 1489h180v-655l530 354v-141l-530 -355v-532h1175v-160h-1355v571l-183 -122v141l183 123v776z" />
    <glyph glyph-name="dotlessi" horiz-adv-x="456" 
d="M145 1071h166v-1071h-166v1071z" />
    <glyph glyph-name="lslash" horiz-adv-x="491" 
d="M164 1489h166v-617l198 144v-142l-198 -143v-731h-166v610l-199 -143v141l199 144v737z" />
    <glyph glyph-name="minus" horiz-adv-x="1228" 
d="M96 580h1037v-123h-1037v123z" />
    </font>
</defs>
</svg>
